# xmcd CD database file generated by LOLA_Freedb v0.9beta0
# 
# Track frame offsets:
#      150
#      18267
#      37955
#      54425
#      67519
#      83613
#      97250
#      110206
#      125457
#      140448
#      157068
#      173070
#      189462
#      202891
#      217425
#      233135
# 
# Disc length: 3312 seconds
# 
# Revision: 0 
# Processed by: cddbd v1.5.1PL2 Copyright (c) Steve Scherf et al.
# Submitted via: LOLA_Freedb v0.9beta0
# 
DISCID=dc0cee10
DTITLE=Al Bano and Romina Power - Romantica
DYEAR=1900
DGENRE=
TTITLE0=Sempre sempre
TTITLE1=Sharazan
TTITLE2=Tu soltanto tu
TTITLE3=It's forever
TTITLE4=Magic oh magic
TTITLE5=Canto di liberà
TTITLE6=Prima notte d'amore
TTITLE7=Canzone blu
TTITLE8=Felicità
TTITLE9=Al ritmo di beguine
TTITLE10=Che angelo sei
TTITLE11=Ciao, Auf Wiedersehen, goodbye
TTITLE12=Abbandonati
TTITLE13=Parigi è bella
TTITLE14=Angeli
TTITLE15=Ci sarà
EXTD=
EXTT0=
EXTT1=
EXTT2=
EXTT3=
EXTT4=
EXTT5=
EXTT6=
EXTT7=
EXTT8=
EXTT9=
EXTT10=
EXTT11=
EXTT12=
EXTT13=
EXTT14=
EXTT15=
PLAYORDER=
